<?xml version="1.0" encoding="UTF-8"?>
<svg viewBox="0 0 3672 2748" xmlns="http://www.w3.org/2000/svg" xmlns:xlink="http://www.w3.org/1999/xlink">
 <defs>
  <filter id="ai">
   <feGaussianBlur stdDeviation="25.98604"/>
  </filter>
  <filter id="aj" x="-.11374" y="-.21017" width="1.2275" height="1.4203">
   <feGaussianBlur stdDeviation="39.72933"/>
  </filter>
  <linearGradient id="a">
   <stop stop-color="#18161a" offset="0"/>
   <stop stop-color="#1f1f1f" offset=".14916"/>
   <stop stop-color="#7f8197" offset=".30121"/>
   <stop stop-color="#c8e3f6" offset=".41122"/>
   <stop stop-color="#dcfcfc" offset=".50684"/>
   <stop stop-color="#fff" offset=".59011"/>
   <stop stop-color="#f7fefe" offset=".65695"/>
   <stop stop-color="#cce6f7" offset=".7286"/>
   <stop stop-color="#cfdef5" offset=".8643"/>
   <stop stop-color="#717486" offset="1"/>
  </linearGradient>
  <linearGradient id="b">
   <stop offset="0"/>
   <stop stop-color="#000709" offset=".22927"/>
   <stop stop-color="#072b3b" offset=".36166"/>
   <stop stop-color="#16485a" offset=".42741"/>
   <stop stop-color="#4d5b79" offset=".62823"/>
   <stop stop-color="#333f5b" offset=".76368"/>
   <stop stop-color="#082c4c" offset=".86754"/>
   <stop stop-color="#21526f" offset="1"/>
  </linearGradient>
  <linearGradient id="c">
   <stop stop-color="#3e3e3e" offset="0"/>
   <stop stop-color="#303030" offset=".5"/>
   <stop stop-color="#c1c1c1" offset="1"/>
  </linearGradient>
  <linearGradient id="e">
   <stop stop-color="#576280" offset="0"/>
   <stop stop-color="#464b52" offset=".15561"/>
   <stop stop-color="#433c39" offset=".38547"/>
   <stop stop-color="#4f4f4f" offset=".55503"/>
   <stop stop-color="#667982" offset=".69611"/>
   <stop stop-color="#707d7b" offset=".75365"/>
   <stop stop-color="#7b7777" offset=".87811"/>
   <stop stop-color="#828ba6" offset="1"/>
  </linearGradient>
  <linearGradient id="d">
   <stop stop-color="#7e83a3" offset="0"/>
   <stop stop-color="#5d6368" offset=".1272"/>
   <stop stop-color="#857977" offset=".29138"/>
   <stop stop-color="#fff" offset=".4184"/>
   <stop stop-color="#aec3c2" offset=".70784"/>
   <stop stop-color="#b5bcdb" offset=".80283"/>
   <stop stop-color="#9eafc7" offset=".91921"/>
   <stop stop-color="#9cb6cf" offset="1"/>
  </linearGradient>
  <linearGradient id="z" x1="1165.6" x2="1308.5" y1="1697.1" y2="1843.5" gradientUnits="userSpaceOnUse">
   <stop stop-color="#7e83a3" offset="0"/>
   <stop stop-color="#5d6368" offset=".20484"/>
   <stop stop-color="#857977" offset=".52141"/>
   <stop stop-color="#aec3c2" offset=".70784"/>
   <stop stop-color="#b5bcdb" offset=".80283"/>
   <stop stop-color="#9eafc7" offset=".91921"/>
   <stop stop-color="#9cb6cf" offset="1"/>
  </linearGradient>
  <linearGradient id="x" x1="2028" x2="2099.3" y1="1097.8" y2="1273.7" gradientUnits="userSpaceOnUse">
   <stop stop-color="#7e83a3" offset="0"/>
   <stop stop-color="#5d6368" offset=".1272"/>
   <stop stop-color="#857977" offset=".29138"/>
   <stop stop-color="#fff" offset=".4184"/>
   <stop stop-color="#aec3c2" offset=".70784"/>
   <stop stop-color="#b5bcdb" offset=".80283"/>
   <stop stop-color="#9eafc7" offset=".91921"/>
   <stop stop-color="#9cb6cf" stop-opacity="0" offset="1"/>
  </linearGradient>
  <linearGradient id="ae" x1="991.75" x2="1029.5" y1="1862.8" y2="1909" gradientUnits="userSpaceOnUse">
   <stop stop-color="#41444c" offset="0"/>
   <stop stop-color="#464b52" offset=".15935"/>
   <stop stop-color="#433c39" offset=".38547"/>
   <stop stop-color="#4f4f4f" offset=".55503"/>
   <stop stop-color="#667982" offset=".69611"/>
   <stop stop-color="#707d7b" offset=".75365"/>
   <stop stop-color="#7b7777" offset=".87811"/>
   <stop stop-color="#828ba6" offset="1"/>
  </linearGradient>
  <linearGradient id="ac" x1="1149.6" x2="1194.1" y1="1818.5" y2="1786" gradientUnits="userSpaceOnUse">
   <stop stop-color="#999" offset="0"/>
   <stop stop-color="#585454" offset="1"/>
  </linearGradient>
  <linearGradient id="ah" x1="1552" x2="1696.1" y1="1389" y2="1580" gradientUnits="userSpaceOnUse">
   <stop stop-color="#524b46" offset="0"/>
   <stop stop-color="#0f1612" offset=".11389"/>
   <stop stop-color="#251e1b" offset=".19404"/>
   <stop stop-color="#74705f" offset=".28802"/>
   <stop stop-color="#7d7463" offset=".36788"/>
   <stop stop-color="#fefede" offset=".5582"/>
   <stop stop-color="#b4a797" offset=".7455"/>
   <stop stop-color="#bab59b" stop-opacity=".98889" offset=".86147"/>
   <stop stop-color="#4d5650" offset="1"/>
  </linearGradient>
  <linearGradient id="w" x1="2403.5" x2="2466.3" y1="1076.5" y2="1169.5" gradientUnits="userSpaceOnUse">
   <stop offset="0"/>
   <stop stop-color="#000709" offset=".22927"/>
   <stop stop-color="#072b3b" offset=".36166"/>
   <stop stop-color="#16485a" offset=".49681"/>
   <stop stop-color="#4d5b79" offset=".62823"/>
   <stop stop-color="#333f5b" offset=".73508"/>
   <stop stop-color="#082c4c" offset=".86754"/>
   <stop stop-color="#21526f" offset="1"/>
  </linearGradient>
  <linearGradient id="o" x1="2673.1" x2="2626.2" y1="845.55" y2="773.78" gradientUnits="userSpaceOnUse">
   <stop stop-color="#373737" offset="0"/>
   <stop stop-color="#343434" offset=".14916"/>
   <stop stop-color="#7c7c7c" offset=".34218"/>
   <stop stop-color="#2a2a2a" offset="1"/>
  </linearGradient>
  <linearGradient id="f" x1="2816.5" x2="2427.7" y1="1009.2" y2="464" gradientUnits="userSpaceOnUse">
   <stop offset="0"/>
   <stop stop-opacity="0" offset="1"/>
  </linearGradient>
  <linearGradient id="aa" x1="1305.3" x2="1429.3" y1="1582.8" y2="1759.1" gradientUnits="userSpaceOnUse" xlink:href="#d"/>
  <linearGradient id="y" x1="2028" x2="2099.3" y1="1097.8" y2="1273.7" gradientUnits="userSpaceOnUse" xlink:href="#d"/>
  <linearGradient id="ag" x1="1003.6" x2="1036.2" y1="1872.1" y2="1921.5" gradientUnits="userSpaceOnUse" xlink:href="#e"/>
  <linearGradient id="ad" x1="979.56" x2="1042.1" y1="1849.1" y2="1924.9" gradientUnits="userSpaceOnUse" xlink:href="#e"/>
  <linearGradient id="ab" x1="1148.4" x2="1217.2" y1="1821.1" y2="1774.8" gradientUnits="userSpaceOnUse" xlink:href="#c"/>
  <linearGradient id="af" x1="1684.2" x2="1796.8" y1="1299.6" y2="1656.6" gradientUnits="userSpaceOnUse" xlink:href="#c"/>
  <linearGradient id="v" x1="2113.6" x2="2212.9" y1="1223.2" y2="1351" gradientUnits="userSpaceOnUse" xlink:href="#b"/>
  <linearGradient id="u" x1="2218.1" x2="2237.1" y1="1141.1" y2="1164" gradientUnits="userSpaceOnUse" xlink:href="#b"/>
  <linearGradient id="t" x1="2238.5" x2="2249.6" y1="1113.3" y2="1128.2" gradientUnits="userSpaceOnUse" xlink:href="#b"/>
  <linearGradient id="s" x1="2233.9" x2="2241.4" y1="1094.9" y2="1106.6" gradientUnits="userSpaceOnUse" xlink:href="#b"/>
  <linearGradient id="r" x1="2228.1" x2="2237.9" y1="1070.2" y2="1085.4" gradientUnits="userSpaceOnUse" xlink:href="#b"/>
  <linearGradient id="q" x1="2209.9" x2="2218.1" y1="1053.8" y2="1067.3" gradientUnits="userSpaceOnUse" xlink:href="#b"/>
  <linearGradient id="p" x1="2182.3" x2="2192.1" y1="1045.6" y2="1060.5" gradientUnits="userSpaceOnUse" xlink:href="#b"/>
  <linearGradient id="n" x1="2556.9" x2="2613.9" y1="808.83" y2="896.87" gradientUnits="userSpaceOnUse" xlink:href="#a"/>
  <linearGradient id="m" x1="2591.3" x2="2646.5" y1="785.31" y2="874.02" gradientUnits="userSpaceOnUse" xlink:href="#a"/>
  <linearGradient id="l" x1="2625.7" x2="2680.3" y1="765.37" y2="851.99" gradientUnits="userSpaceOnUse" xlink:href="#a"/>
  <linearGradient id="k" x1="2661.2" x2="2712.7" y1="748.37" y2="822.62" gradientUnits="userSpaceOnUse" xlink:href="#a"/>
  <linearGradient id="j" x1="2677.8" x2="2727.5" y1="736.96" y2="809.92" gradientUnits="userSpaceOnUse" xlink:href="#a"/>
  <linearGradient id="i" x1="2687.6" x2="2738.9" y1="731.95" y2="801.5" gradientUnits="userSpaceOnUse" xlink:href="#a"/>
  <linearGradient id="h" x1="2699.6" x2="2746.6" y1="727.31" y2="794.84" gradientUnits="userSpaceOnUse" xlink:href="#a"/>
  <linearGradient id="g" x1="2723.1" x2="2765.8" y1="714.93" y2="778.88" gradientUnits="userSpaceOnUse" xlink:href="#a"/>
 </defs>
 <path d="m-4 0h3676v2752h-3676z" fill="#b1c7ef"/>
 <path d="m536 2224c120-4 424-368 516-320s264-48 348-172c144-84 805.24-509.73 904-604 48-128-44-116-196-64-120 156-176 148-540 304-232 152-488 284-532 408-42.236 119.03-508 364-500 448z" fill-rule="evenodd" filter="url(#ai)" opacity=".18026"/>
 <path d="m3020 988c-292-25.771-420-35.091-552-48-120-80-376-228-208-348 112.24-80.169 264-64 416-28 216.19 51.203 440 228 344 424z" fill="url(#f)" fill-rule="evenodd" filter="url(#aj)" opacity=".61373"/>
 <path d="m1127.2 1733.4c65 22 96.327 99.707 92.414 129.08-38.878 10.523-104.91-82.078-92.414-129.08z" fill="url(#ab)" fill-rule="evenodd"/>
 <path d="m1131.8 1742.3c65.586 30.561 76.256 87.843 81.464 114.26-40.67 1.3197-90.464-83.257-81.464-114.26z" fill="url(#ac)" fill-rule="evenodd"/>
 <path d="m618.66 2186.5-10.062-15.281c-12.084 13.613-13.75 20.5-13.75 20.5 0.1981 0.1226 8.4266 0.2953 23.812-5.2188z" fill="url(#ad)" fill-rule="evenodd"/>
 <path d="m924.68 2003.1-33.01-49.977c-166.76 121.87-277.87 212.34-282.26 217.14-0.51648 0.5649-0.93728 1.1537-1.418 1.6953l9.9985 14.807c0.99699-0.3573 1.729-0.4979 2.7944-0.9086 11.534-4.4469 126.86-70.473 303.9-182.76z" fill="url(#ae)" fill-rule="evenodd"/>
 <path d="m1164.3 1763c-101.8 68.137-196.6 134.36-276.17 192.51l32.656 50.031c81.284-51.554 176.9-114.31 282.7-185.59-8.8203-24.617-21.428-42.444-39.193-56.948z" fill="url(#ag)" fill-rule="evenodd"/>
 <g transform="matrix(.99984,0,0,1,.21881,0)" fill="url(#ah)" fill-rule="evenodd">
  <path d="m1820.7 1238c4.8516-8.8594 11.391-10.547 28.477-4.0078 63.972 24.483 86.484 80.156 96.609 107.58 8.8915 24.081 21.201 52.166-4.4298 72.141-0.9534 0.7431 13.121-25.079-43.664-111.59-25.56-38.938-58.008-64.336-76.992-64.125z"/>
  <path d="m1787.4 1259.5c4.8516-8.8594 11.391-10.547 28.477-4.0078 63.972 24.483 86.484 80.156 96.609 107.58 8.8915 24.081 21.201 52.166-4.4298 72.141-0.9534 0.7431 13.121-25.079-43.664-111.59-25.56-38.938-58.008-64.336-76.992-64.125z"/>
  <path d="m1750.7 1281.4c4.8516-8.8594 11.391-10.547 28.477-4.0078 63.972 24.483 86.484 80.156 96.609 107.58 8.8915 24.081 21.201 52.166-4.4298 72.141-0.9534 0.7431 13.121-25.079-43.664-111.59-25.56-38.938-58.008-64.336-76.992-64.125z"/>
  <path d="m1716.5 1305.5c4.8516-8.8594 11.391-10.547 28.477-4.0078 63.972 24.483 86.484 80.156 96.609 107.58 8.8915 24.081 21.201 52.166-4.4298 72.141-0.9534 0.7431 13.121-25.079-43.664-111.59-25.56-38.938-58.008-64.336-76.992-64.125z"/>
  <path d="m1682.3 1329.1c4.8516-8.8594 11.391-10.547 28.477-4.0078 63.972 24.483 86.484 80.156 96.609 107.58 8.8915 24.081 21.201 52.166-4.4298 72.141-0.9534 0.7431 13.121-25.079-43.664-111.59-25.56-38.938-58.008-64.336-76.992-64.125z"/>
  <path d="m1644.8 1354.4c4.8516-8.8594 11.391-10.547 28.477-4.0078 63.972 24.483 86.484 80.156 96.609 107.58 8.8915 24.081 21.201 52.166-4.4298 72.141-0.9534 0.7431 13.121-25.079-43.664-111.59-25.56-38.938-58.008-64.336-76.992-64.125z"/>
  <path d="m1608.1 1381c4.8516-8.8594 11.391-10.547 28.477-4.0078 63.972 24.483 86.484 80.156 96.609 107.58 8.8915 24.081 21.201 52.166-4.4298 72.141-0.9534 0.7431 13.121-25.079-43.664-111.59-25.56-38.938-58.008-64.336-76.992-64.125z"/>
  <path d="m1570.1 1405.9c4.8516-8.8594 11.391-10.547 28.477-4.0078 63.972 24.483 86.484 80.156 96.609 107.58 8.8915 24.081 21.201 52.166-4.4298 72.141-0.9534 0.7431 13.121-25.079-43.664-111.59-25.56-38.938-58.008-64.336-76.992-64.125z"/>
  <path d="m1532.2 1429.9c4.8516-8.8594 11.391-10.547 28.477-4.0078 63.972 24.483 86.484 80.156 96.609 107.58 8.8915 24.081 21.201 52.166-4.4298 72.141-0.9534 0.7431 13.121-25.079-43.664-111.59-25.56-38.938-58.008-64.336-76.992-64.125z"/>
  <path d="m1495 1456.5c4.8516-8.8594 11.391-10.547 28.477-4.0078 63.972 24.483 86.484 80.156 96.609 107.58 8.8915 24.081 21.201 52.166-4.4298 72.141-0.9534 0.7431 13.121-25.079-43.664-111.59-25.56-38.938-58.008-64.336-76.992-64.125z"/>
  <path d="m1379.9 1532.9c4.8516-8.8594 11.391-10.547 28.477-4.0078 63.972 24.483 86.484 80.156 96.609 107.58 8.8915 24.081 21.201 52.166-4.4298 72.141-0.9534 0.7431 13.121-25.079-43.664-111.59-25.56-38.938-58.008-64.336-76.992-64.125z"/>
  <path d="m1342.9 1559.4c4.9128-8.8256 11.463-10.468 28.504-3.8105 63.801 24.926 85.927 80.753 95.862 108.24 8.7245 24.142 20.84 52.311-4.9293 72.108-0.9585 0.7365 13.294-24.988-42.89-111.89-25.289-39.114-57.561-64.736-76.546-64.657z"/>
  <path d="m1456.2 1481.8c4.8516-8.8594 11.391-10.547 28.477-4.0078 63.972 24.483 86.484 80.156 96.609 107.58 8.8915 24.081 21.201 52.166-4.4298 72.141-0.9534 0.7431 13.121-25.079-43.664-111.59-25.56-38.938-58.008-64.336-76.992-64.125z"/>
  <path d="m1418.3 1507.1c4.8516-8.8594 11.391-10.547 28.477-4.0078 63.972 24.483 86.484 80.156 96.609 107.58 8.8915 24.081 21.201 52.166-4.4298 72.141-0.9534 0.7431 13.121-25.079-43.664-111.59-25.56-38.938-58.008-64.336-76.992-64.125z"/>
 </g>
 <g fill="url(#af)" fill-rule="evenodd">
  <path d="m1820.6 1237.7c26.156-44.93 166.46 117.49 122.13 174.66-0.1581 0.204 15.897-6.6956 15.609-20.672-1.2451-60.554-39.057-112.47-69.82-138.16-33.146-27.681-59.274-34.383-67.922-15.82z"/>
  <path d="m1788 1259.5c26.156-44.93 166.46 117.49 122.13 174.66-0.1581 0.204 15.897-6.6956 15.609-20.672-1.2451-60.554-39.057-112.47-69.82-138.16-33.146-27.681-59.274-34.383-67.922-15.82z"/>
  <path d="m1751.3 1281.4c26.156-44.93 166.46 117.49 122.13 174.66-0.1581 0.204 15.897-6.6956 15.609-20.672-1.2451-60.554-39.057-112.47-69.82-138.16-33.146-27.681-59.274-34.383-67.922-15.82z"/>
  <path d="m1717.2 1305.5c26.156-44.93 166.46 117.49 122.13 174.66-0.1581 0.204 15.897-6.6956 15.609-20.672-1.2451-60.554-39.057-112.47-69.82-138.16-33.146-27.681-59.274-34.383-67.922-15.82z"/>
  <path d="m1683 1329.1c26.156-44.93 166.46 117.49 122.13 174.66-0.1581 0.204 15.897-6.6956 15.609-20.672-1.2451-60.554-39.057-112.47-69.82-138.16-33.146-27.681-59.274-34.383-67.922-15.82z"/>
  <path d="m1645.4 1354.4c26.156-44.93 166.46 117.49 122.13 174.66-0.1581 0.204 15.897-6.6956 15.609-20.672-1.2451-60.554-39.057-112.47-69.82-138.16-33.146-27.681-59.274-34.383-67.922-15.82z"/>
  <path d="m1608.7 1381c26.156-44.93 166.46 117.49 122.13 174.66-0.1581 0.204 15.897-6.6956 15.609-20.672-1.2451-60.554-39.057-112.47-69.82-138.16-33.146-27.681-59.274-34.383-67.922-15.82z"/>
  <path d="m1570.8 1405.9c26.156-44.93 166.46 117.49 122.13 174.66-0.1581 0.204 15.897-6.6956 15.609-20.672-1.2451-60.554-39.057-112.47-69.82-138.16-33.146-27.681-59.274-34.383-67.922-15.82z"/>
  <path d="m1532.8 1429.9c26.156-44.93 166.46 117.49 122.13 174.66-0.1581 0.204 15.897-6.6956 15.609-20.672-1.2451-60.554-39.057-112.47-69.82-138.16-33.146-27.681-59.274-34.383-67.922-15.82z"/>
  <path d="m1495.7 1456.5c26.156-44.93 166.46 117.49 122.13 174.66-0.1581 0.204 15.897-6.6956 15.609-20.672-1.2451-60.554-39.057-112.47-69.82-138.16-33.146-27.681-59.274-34.383-67.922-15.82z"/>
  <path d="m1380.5 1532.9c26.156-44.93 166.46 117.49 122.13 174.66-0.1581 0.204 15.897-6.6956 15.609-20.672-1.2451-60.554-39.057-112.47-69.82-138.16-33.146-27.681-59.274-34.383-67.922-15.82z"/>
  <path d="m1343.2 1559.4c26.156-44.93 166.46 117.49 122.13 174.66-0.1581 0.204 15.897-6.6956 15.609-20.672-1.2451-60.554-39.057-112.47-69.82-138.16-33.146-27.681-59.274-34.383-67.922-15.82z"/>
  <path d="m1456.9 1481.8c26.156-44.93 166.46 117.49 122.13 174.66-0.1581 0.204 15.897-6.6956 15.609-20.672-1.2451-60.554-39.057-112.47-69.82-138.16-33.146-27.681-59.274-34.383-67.922-15.82z"/>
  <path d="m1418.9 1507.1c26.156-44.93 166.46 117.49 122.13 174.66-0.1581 0.204 15.897-6.6956 15.609-20.672-1.2451-60.554-39.057-112.47-69.82-138.16-33.146-27.681-59.274-34.383-67.922-15.82z"/>
 </g>
 <g fill="url(#aa)" fill-rule="evenodd">
  <path d="m1788.2 1259.3c8.6484-13.078 25.927-26.068 31.008-26.578 46.38-4.6552 137.36 108.76 126.98 175.82-0.2606 1.6846-24.203 26.268-36.756 26.156-1.212-0.0108 17.542-5.7217 16.506-24.574-5.5642-101.29-117.07-191.11-137.74-150.82z"/>
  <path d="m1751.5 1281.2c8.6484-13.078 25.927-26.068 31.008-26.578 46.38-4.6552 137.36 108.76 126.98 175.82-0.2606 1.6846-24.203 26.268-36.756 26.156-1.212-0.0108 17.542-5.7217 16.506-24.574-5.5642-101.29-117.07-191.11-137.74-150.82z"/>
  <path d="m1717.4 1305.2c8.6484-13.078 25.927-26.068 31.008-26.578 46.38-4.6552 137.36 108.76 126.98 175.82-0.2606 1.6846-24.203 26.268-36.756 26.156-1.212-0.0108 17.542-5.7217 16.506-24.574-5.5642-101.29-117.07-191.11-137.74-150.82z"/>
  <path d="m1683.2 1328.9c8.6484-13.078 25.927-26.068 31.008-26.578 46.38-4.6552 137.36 108.76 126.98 175.82-0.2606 1.6846-24.203 26.268-36.756 26.156-1.212-0.0108 17.542-5.7217 16.506-24.574-5.5642-101.29-117.07-191.11-137.74-150.82z"/>
  <path d="m1645.6 1354.2c8.6484-13.078 25.927-26.068 31.008-26.578 46.38-4.6552 137.36 108.76 126.98 175.82-0.2606 1.6846-24.203 26.268-36.756 26.156-1.212-0.0108 17.542-5.7217 16.506-24.574-5.5642-101.29-117.07-191.11-137.74-150.82z"/>
  <path d="m1608.9 1380.8c8.6484-13.078 25.927-26.068 31.008-26.578 46.38-4.6552 137.36 108.76 126.98 175.82-0.2606 1.6846-24.203 26.268-36.756 26.156-1.212-0.0108 17.542-5.7217 16.506-24.574-5.5642-101.29-117.07-191.11-137.74-150.82z"/>
  <path d="m1571 1405.7c8.6484-13.078 25.927-26.068 31.008-26.578 46.38-4.6552 137.36 108.76 126.98 175.82-0.2606 1.6846-24.203 26.268-36.756 26.156-1.212-0.0108 17.542-5.7217 16.506-24.574-5.5642-101.29-117.07-191.11-137.74-150.82z"/>
  <path d="m1533 1429.7c8.6484-13.078 25.927-26.068 31.008-26.578 46.38-4.6552 137.36 108.76 126.98 175.82-0.2606 1.6846-24.203 26.268-36.756 26.156-1.212-0.0108 17.542-5.7217 16.506-24.574-5.5642-101.29-117.07-191.11-137.74-150.82z"/>
  <path d="m1495.9 1456.3c8.6484-13.078 25.927-26.068 31.008-26.578 46.38-4.6552 137.36 108.76 126.98 175.82-0.2606 1.6846-24.203 26.268-36.756 26.156-1.212-0.0108 17.542-5.7217 16.506-24.574-5.5642-101.29-117.07-191.11-137.74-150.82z"/>
  <path d="m1380.7 1532.6c8.6484-13.078 25.927-26.068 31.008-26.578 46.38-4.6552 137.36 108.76 126.98 175.82-0.2606 1.6846-24.203 26.268-36.756 26.156-1.212-0.0108 17.542-5.7217 16.506-24.574-5.5642-101.29-117.07-191.11-137.74-150.82z"/>
  <path d="m1343.5 1559.2c8.6484-13.078 25.927-26.068 31.008-26.578 46.38-4.6552 137.36 108.76 126.98 175.82-0.2606 1.6846-24.203 26.268-36.756 26.156-1.212-0.0108 17.542-5.7217 16.506-24.574-5.5642-101.29-117.07-191.11-137.74-150.82z"/>
  <path d="m1457.1 1481.6c8.6484-13.078 25.927-26.068 31.008-26.578 46.38-4.6552 137.36 108.76 126.98 175.82-0.2606 1.6846-24.203 26.268-36.756 26.156-1.212-0.0108 17.542-5.7217 16.506-24.574-5.5642-101.29-117.07-191.11-137.74-150.82z"/>
  <path d="m1419.1 1506.9c8.6484-13.078 25.927-26.068 31.008-26.578 46.38-4.6552 137.36 108.76 126.98 175.82-0.2606 1.6846-24.203 26.268-36.756 26.156-1.212-0.0108 17.542-5.7217 16.506-24.574-5.5642-101.29-117.07-191.11-137.74-150.82z"/>
  <path d="m1463.1 1735.9c-0.8438 4.6406-147.66 105.05-147.66 105.05 5.3445-52.269-61.127-151.51-117.28-177.61-2.988-1.3889 135.87-103.73 139.64-104.2 43.462-5.4839 132.05 109.69 125.3 176.77z"/>
  <path d="m1831.4 1228.4c3.375-5.0625 134.16-79.78 134.58-79.734 64.125 6.9832 118.97 75.338 118.97 147.66 0 0.422-127.41 102.47-127.3 101.88 7.9143-44.199-57.902-173.18-126.25-169.8z"/>
 </g>
 <path d="m1198.3 1662.8s-71.674 70.286-71.099 70.545c93.148 42.035 92.391 129.09 92.391 129.09 14.979-0.4797 95.233-18.648 95.555-20.672 10.754-67.576-82.674-168.84-116.85-178.97z" fill="url(#z)" fill-rule="evenodd"/>
 <path d="m1965.9 1149.1c51.891-15.188 63.052-12.689 63.281-12.656 46.262 6.6629 85.309 54.032 85.219 105.05-0.0135 7.6405-30.803 54.422-30.797 54 1.2635-85.224-66.234-139.22-117.7-146.39z" fill="url(#y)" fill-rule="evenodd" stroke="url(#x)"/>
 <g transform="translate(-91.924 -107.83)" fill-rule="evenodd">
  <path d="m2683.6 1017.3c0.8438 0-390.66 259.03-390.66 259.03s-48.206 38.394-85.219 74.25c-0.2749 0.2663-3.1479-86.804-86.906-107.16 0 0 86.906-36.281 117.28-58.219s394.03-254.81 394.03-254.81c34.326 10.931 63.281 38.812 51.469 86.906z" fill="url(#w)"/>
  <g transform="translate(-5.4801 173.95)">
   <path d="m2218.4 1152.6c6.3638-7.4245 44.191-35.721 45.211-32.394 0.9174 2.992-44.503 41.902-45.432 41.896-0.0671-4e-4 -0.221-4.1985 0.221-9.5019z" fill="url(#u)"/>
   <path d="m2215.9 1135.7c0.7955 6.364 1.2374 12.463 1.1491 12.374 8.3622-3.4066 57.57-47.41 57.983-50.823 0.5389-4.4606-56.568 34.825-59.132 38.449z" fill="url(#t)"/>
   <path d="m2206.3 1114c3.4472 4.8614 4.9498 6.5407 6.5408 10.518 7.4247-4.8613 74.393-50.745 73.716-54.447-0.9899-5.409-72.744 39.686-80.257 43.929z" fill="url(#s)"/>
   <path d="m2192 1091.5c6.629 6.8944 7.9549 10.518 10.96 13.877 5.1265-2.8284 78.584-53.354 76.191-56.657-3.052-4.2121-70.622 33.499-87.151 42.78z" fill="url(#r)"/>
   <path d="m2173.1 1075.2c16.794-11.49 84.94-47.898 89.803-44.371 4.6773 3.3921-68.236 48.79-77.605 56.215-4.773-6.5408-7.4246-8.1317-12.198-11.844z" fill="url(#q)"/>
   <path d="m2166.4 1071.3c-4.4194-3.3587-4.5962-3.0052-12.021-7.071 9.8798-6.2822 71.52-37.34 75.307-34.118 3.9136 3.3302-51.796 36.593-63.286 41.189z" fill="url(#p)"/>
  </g>
  <path d="m2120.6 1243.7c63.75 10.75 89 80 86.25 107.25 0 0 11.888-11.537 11.75-11.5-2-30.25-22.75-89.75-80.25-103.25 0-0.25-17.5 7.5-17.75 7.5z" fill="url(#v)"/>
 </g>
 <g transform="translate(-.35355 4.9151e-6)" fill-rule="evenodd">
  <g fill="url(#o)">
   <path d="m2626.3 885.24c-0.0466-1.9935-0.0394-2.8062-0.2149-4.7443-0.231-2.5501-0.5626-5.0458-1-7.5s-0.9689-4.8605-1.5938-7.2188-1.3316-4.6751-2.125-6.9375-1.682-4.4584-2.625-6.625-1.9577-4.3041-3.0312-6.375c-2.1472-4.1418-4.5383-8.0847-7.0938-11.844s-5.2815-7.3107-8.0938-10.688-5.7079-6.5675-8.625-9.5625-5.8485-5.7927-8.7187-8.4062c-2.4511-2.232-3.8163-3.425-6.1306-5.3791-1.3256 0.81872-2.4393 1.5832-3.7058 2.375 2.4429 2.1562 3.8983 3.506 6.4301 5.8166 2.9352 2.6786 5.8833 5.4701 8.8126 8.4062s5.8362 6.0337 8.625 9.2812 5.4552 6.6684 7.9687 10.281 4.865 7.4055 6.9687 11.438c1.0519 2.016 2.0447 4.0878 2.9688 6.2188s1.7829 4.3412 2.5625 6.5938 1.4755 4.5566 2.0937 6.9375 1.1538 4.8278 1.5938 7.3438 0.7862 5.0922 1.0312 7.75c0.1955 2.12 0.2379 3.1018 0.2996 5.3159 1.2576-0.87753 2.2873-1.5482 3.6029-2.4779z"/>
   <path d="m2662.1 858.55c-0.0604-1.331-0.025-1.3683-0.1433-2.6742-0.231-2.5501-0.5938-5.0458-1.0312-7.5s-0.9689-4.8605-1.5938-7.2188-1.3316-4.6751-2.125-6.9375-1.682-4.4584-2.625-6.625-1.9577-4.3041-3.0312-6.375c-2.1472-4.1418-4.507-8.0847-7.0626-11.844s-5.2815-7.3107-8.0937-10.688-5.7392-6.5675-8.6563-9.5625-5.8485-5.824-8.7187-8.4375c-1.6107-1.4666-2.1124-1.8762-3.671-3.2228-1.3287 0.75304-2.6287 1.5024-3.9375 2.25 1.7329 1.5373 2.4323 2.2013 4.2022 3.8166 2.9351 2.6786 5.9146 5.4701 8.8438 8.4062s5.805 6.0337 8.5938 9.2812 5.4864 6.6371 8 10.25 4.865 7.4367 6.9687 11.469c1.0519 2.016 2.0446 4.0878 2.9687 6.2188s1.7517 4.31 2.5313 6.5625 1.5068 4.5879 2.125 6.9688 1.1537 4.8278 1.5937 7.3438 0.7863 5.0922 1.0313 7.75c0.1459 1.5826 0.178 1.6934 0.25 3.3282 1.175-0.8946 2.3918-1.6487 3.5808-2.5603z"/>
   <path d="m2691.1 835.08c-0.0585-1.5858 0.0101-1.3435-0.1303-2.8938-0.231-2.5501-0.5626-5.0458-1-7.5s-0.9689-4.8605-1.5938-7.2188-1.3316-4.6751-2.125-6.9375-1.682-4.4584-2.625-6.625-1.9577-4.3041-3.0312-6.375c-2.1472-4.1418-4.5383-8.0847-7.0938-11.844s-5.2815-7.3419-8.0938-10.719-5.7079-6.5363-8.625-9.5312c-2.646-2.7167-4.409-4.2811-7.0223-6.684-1.3697 0.72422-2.4659 1.2838-3.8287 2.0107 2.8934 2.643 4.6518 4.5922 7.5386 7.4858 2.9292 2.9362 5.8362 6.0337 8.625 9.2812s5.4864 6.6371 8 10.25 4.8337 7.4367 6.9374 11.469c1.0519 2.016 2.0447 4.0878 2.9688 6.2188s1.7829 4.31 2.5625 6.5625 1.4755 4.5879 2.0937 6.9688 1.1538 4.8278 1.5938 7.3438 0.7862 5.0922 1.0312 7.75c0.1749 1.897 0.156 1.9271 0.2242 3.8992 1.2031-0.96935 2.3885-1.9333 3.5937-2.9116z"/>
   <path d="m2721.6 808.96c-0.4273-2.6365-0.5022-3.3024-0.9902-5.7117-0.6252-3.0877-1.3147-6.0118-2.0312-8.75s-1.4515-5.3034-2.25-7.7188-1.66-4.6622-2.5312-6.7812-1.7527-4.0882-2.6876-5.9375-1.9171-3.5814-2.9062-5.1875c-1.9782-3.2122-4.0477-5.9762-6.1875-8.375s-4.3349-4.4207-6.5625-6.2188-4.4774-3.3715-6.7188-4.7812c-3.7627-2.3667-6.1775-3.5932-9.7-5.6679l-3.1197 1.5312c3.4845 2.1576 6.0124 3.5136 9.8823 6.0116 2.2898 1.4781 4.5858 3.0935 6.875 4.9688s4.5623 4.021 6.75 6.5c1.0938 1.2395 2.1692 2.5396 3.2187 3.9688s2.0699 2.9803 3.0625 4.625 1.9518 3.3952 2.875 5.2812 1.8152 3.9092 2.6562 6.0625 1.6287 4.4287 2.375 6.875 1.4547 5.0474 2.0938 7.8125 1.1996 5.7027 1.7188 8.8125c0.4025 2.4109 0.5619 3.0798 0.8856 5.7117 1.1702-1.0122 2.131-2.0173 3.292-3.0312z"/>
   <path d="m2730.6 801.23c-0.3455-2.0274-0.3264-2.432-0.7089-4.3206-0.6253-3.0877-1.3147-5.9805-2.0312-8.7188s-1.4515-5.3346-2.25-7.75-1.66-4.6622-2.5313-6.7812-1.7527-4.0882-2.6875-5.9375-1.9172-3.5814-2.9062-5.1875c-1.9782-3.2122-4.0477-5.9762-6.1876-8.375s-4.3349-4.4207-6.5624-6.2188-4.4774-3.3715-6.7188-4.7812c-3.1095-1.9558-4.916-2.9657-7.8822-4.6625-1.0688 0.50975-2.027 0.89516-3.0992 1.4116 3.011 1.805 4.7874 3.0238 8.0439 5.1259 2.2898 1.4781 4.5859 3.0935 6.875 4.9688s4.5624 4.021 6.75 6.5c1.0938 1.2395 2.1692 2.5396 3.2187 3.9688s2.0699 2.9803 3.0626 4.625 1.9518 3.3952 2.875 5.2812 1.8151 3.9092 2.6562 6.0625 1.6286 4.4287 2.375 6.875 1.4547 5.0474 2.0938 7.8125 1.1995 5.7027 1.7187 8.8125c0.3155 1.8898 0.4878 2.3842 0.7553 4.409 1.1446-1.0159 2.009-2.1041 3.1411-3.1196z"/>
   <path d="m2739.2 793.16c-0.2159-1.1799 0.0459-0.78377-0.1831-1.9144-0.6253-3.0877-1.2835-5.9805-2-8.7188s-1.4827-5.3346-2.2813-7.75-1.6599-4.6622-2.5312-6.7812-1.7527-4.0882-2.6875-5.9375-1.9172-3.5814-2.9063-5.1875c-1.9781-3.2122-4.0476-5.9762-6.1874-8.375s-4.335-4.4207-6.5626-6.2188-4.4773-3.3715-6.7187-4.7812c-2.6221-1.6493-3.9447-2.3853-6.476-3.8188-1.0883 0.50116-2.2444 1.0476-3.3383 1.5571 2.6258 1.5521 4.0859 2.3351 6.8768 4.1366 2.2898 1.4781 4.5859 3.0935 6.875 4.9688s4.5624 4.021 6.75 6.5c1.0938 1.2395 2.1692 2.5396 3.2188 3.9688s2.0698 2.9803 3.0624 4.625 1.9519 3.3952 2.875 5.2812 1.8152 3.9092 2.6563 6.0625 1.6286 4.4287 2.375 6.875 1.4547 5.0474 2.0937 7.8125 1.2309 5.7027 1.75 8.8125c0.1891 1.1322 0.0629 0.55738 0.2348 1.7376 1.1077-1.012 2.0127-1.845 3.1046-2.8545z"/>
   <path d="m2749.3 783.72c-0.5417-2.5666-0.6704-3.4976-1.2769-5.8153-0.7165-2.7382-1.4827-5.3034-2.2812-7.7188s-1.6288-4.6622-2.5-6.7812-1.784-4.0882-2.7188-5.9375-1.8859-3.5814-2.875-5.1875c-1.9782-3.2122-4.0477-5.9762-6.1875-8.375s-4.3349-4.4207-6.5625-6.2188-4.5086-3.3715-6.75-4.7812c-2.6938-1.6944-4.0673-2.2955-6.6635-3.767-1.1054 0.48855-2.0221 0.93861-3.1357 1.4375 2.7005 1.5995 3.9823 2.3458 6.8617 4.2045 2.2898 1.4781 4.6171 3.0935 6.9063 4.9688s4.5623 4.021 6.75 6.5c1.0938 1.2395 2.1692 2.5396 3.2187 3.9688s2.0699 2.9803 3.0625 4.625 1.9518 3.3952 2.875 5.2812 1.8152 3.9092 2.6562 6.0625 1.6287 4.4287 2.375 6.875 1.4547 5.0474 2.0938 7.8125c0.537 2.3235 0.7192 3.0731 1.1723 5.6385 1.0479-0.9958 1.9511-1.8012 2.9796-2.792z"/>
  </g>
  <path d="m2622.8 888.94c-0.0617-2.2141-0.1483-4.4112-0.3438-6.5312-0.245-2.6578-0.5912-5.234-1.0312-7.75s-0.9755-4.9629-1.5938-7.3438-1.3141-4.685-2.0937-6.9375-1.6384-4.4628-2.5625-6.5938-1.9169-4.2027-2.9688-6.2188c-2.1037-4.032-4.4552-7.8246-6.9687-11.438s-5.18-7.0337-7.9687-10.281-5.6958-6.3451-8.625-9.2812-5.8774-5.7277-8.8126-8.4062c-2.5318-2.3106-5.0258-4.5-7.4687-6.6562-14.884 9.3056-26.967 17.327-30.969 21.062 28.991 13.435 60.806 33.205 50.906 85.531 2.9461-0.56116 15.155-8.4494 30.5-19.156z" fill="url(#n)"/>
  <path d="m2658.6 862.66c-0.072-1.6348-0.1041-3.2924-0.25-4.875-0.245-2.6578-0.5912-5.234-1.0313-7.75s-0.9755-4.9629-1.5937-7.3438-1.3454-4.7162-2.125-6.9688-1.6071-4.4316-2.5313-6.5625-1.9168-4.2027-2.9687-6.2188c-2.1037-4.032-4.4552-7.8559-6.9687-11.469s-5.2113-7.0024-8-10.25-5.6646-6.3451-8.5938-9.2812-5.9087-5.7277-8.8438-8.4062c-1.7699-1.6153-3.4858-3.1189-5.2187-4.6562-12.505 7.1431-24.403 14.091-34.375 20.25 2.3143 1.954 4.6739 3.9868 7.125 6.2188 2.8702 2.6135 5.8018 5.4113 8.7187 8.4062s5.8129 6.1857 8.625 9.5625 5.5383 6.9284 8.0938 10.688 4.9466 7.702 7.0938 11.844c1.0735 2.0709 2.0882 4.2084 3.0312 6.375s1.8316 4.3626 2.625 6.625 1.5001 4.5792 2.125 6.9375 1.1562 4.7646 1.5938 7.2188 0.7689 4.9499 1 7.5c0.1755 1.938 0.2346 3.944 0.2812 5.9375 9.469-6.6915 20.571-14.937 32.188-23.781z" fill="url(#m)"/>
  <path d="m2687.6 839.94c-0.0682-1.9722-0.1377-3.9468-0.3126-5.8438-0.245-2.6578-0.5912-5.234-1.0312-7.75s-0.9755-4.9629-1.5938-7.3438-1.3141-4.7162-2.0937-6.9688-1.6384-4.4316-2.5625-6.5625-1.9169-4.2027-2.9688-6.2188c-2.1037-4.032-4.4239-7.8559-6.9374-11.469s-5.2113-7.0024-8-10.25-5.6958-6.3451-8.625-9.2812c-2.8868-2.8935-5.7942-5.6382-8.6876-8.2812-10.425 5.5611-20.704 11.158-30.406 16.656 1.5586 1.3466 3.0768 2.5958 4.6875 4.0625 2.8702 2.6135 5.8018 5.4425 8.7187 8.4375s5.8441 6.1857 8.6563 9.5625 5.5383 6.9284 8.0937 10.688 4.9154 7.702 7.0626 11.844c1.0735 2.0709 2.0882 4.2084 3.0312 6.375s1.8316 4.3626 2.625 6.625 1.5001 4.5792 2.125 6.9375 1.1562 4.7646 1.5938 7.2188 0.8002 4.9499 1.0312 7.5c0.1183 1.3058 0.1271 2.669 0.1875 4 8.2304-6.3101 16.791-12.996 25.406-19.938z" fill="url(#l)"/>
  <path d="m2718.5 813.94c-0.3237-2.6319-0.6599-5.2453-1.0624-7.6562-0.5192-3.1098-1.0797-6.0474-1.7188-8.8125s-1.3474-5.3662-2.0938-7.8125-1.5339-4.7217-2.375-6.875-1.733-4.1764-2.6562-6.0625-1.8824-3.6365-2.875-5.2812-2.013-3.1958-3.0625-4.625-2.1249-2.7292-3.2187-3.9688c-2.1877-2.479-4.4609-4.6248-6.75-6.5s-4.5852-3.4907-6.875-4.9688c-3.8699-2.498-7.5468-4.5612-11.031-6.7188-8.6629 4.3048-17.36 8.5896-25.938 13.125 2.6133 2.4029 5.2603 4.9395 7.9062 7.6562 2.9171 2.995 5.8129 6.1544 8.625 9.5312s5.5383 6.9597 8.0938 10.719 4.9466 7.702 7.0938 11.844c1.0735 2.0709 2.0882 4.2084 3.0312 6.375s1.8316 4.3626 2.625 6.625 1.5001 4.5792 2.125 6.9375 1.1562 4.7646 1.5938 7.2188 0.7689 4.9499 1 7.5c0.1404 1.5503 0.1602 3.1642 0.2187 4.75 9.2079-7.4741 18.344-15.215 27.344-23z" fill="url(#k)"/>
  <path d="m2727.5 805.94c-0.2675-2.0248-0.5282-4.1102-0.8437-6-0.5192-3.1098-1.0797-6.0474-1.7187-8.8125s-1.3474-5.3662-2.0938-7.8125-1.5339-4.7217-2.375-6.875-1.7331-4.1764-2.6562-6.0625-1.8824-3.6365-2.875-5.2812-2.013-3.1958-3.0626-4.625-2.1249-2.7292-3.2187-3.9688c-2.1876-2.479-4.4609-4.6248-6.75-6.5s-4.5852-3.4907-6.875-4.9688c-3.2565-2.1021-6.2703-3.8512-9.2813-5.6562-2.6718 1.287-5.2508 2.4261-7.9374 3.75 3.5225 2.0747 7.1748 4.0083 10.937 6.375 2.2414 1.4098 4.4912 2.9832 6.7188 4.7812s4.4227 3.8199 6.5625 6.2188 4.2093 5.1628 6.1875 8.375c0.9891 1.6061 1.9715 3.3382 2.9062 5.1875s1.8162 3.8185 2.6876 5.9375 1.7327 4.3659 2.5312 6.7812 1.5335 4.9805 2.25 7.7188 1.4061 5.6623 2.0312 8.75c0.488 2.4093 0.9165 5.0197 1.3438 7.6562 1.8947-1.6548 3.665-3.3122 5.5312-4.9688z" fill="url(#j)"/>
  <path d="m2736.4 797.88c-0.1719-1.1802-0.3109-2.4616-0.5-3.5938-0.5191-3.1098-1.1109-6.0474-1.75-8.8125s-1.3473-5.3662-2.0937-7.8125-1.5339-4.7217-2.375-6.875-1.7331-4.1764-2.6563-6.0625-1.8823-3.6365-2.875-5.2812-2.0129-3.1958-3.0624-4.625-2.125-2.7292-3.2188-3.9688c-2.1876-2.479-4.4609-4.6248-6.75-6.5s-4.5852-3.4907-6.875-4.9688c-2.7909-1.8016-5.3117-3.2916-7.9375-4.8438-2.4749 1.1528-4.8458 2.1523-7.3437 3.3438 2.9662 1.6968 5.9217 3.3254 9.0312 5.2812 2.2414 1.4098 4.4911 2.9832 6.7188 4.7812s4.4227 3.8199 6.5624 6.2188 4.2093 5.1628 6.1876 8.375c0.989 1.6061 1.9714 3.3382 2.9062 5.1875s1.8162 3.8185 2.6875 5.9375 1.7326 4.3659 2.5313 6.7812 1.5333 5.0118 2.25 7.75 1.4059 5.631 2.0312 8.7188c0.3825 1.8886 0.717 3.9726 1.0625 6 1.8811-1.6874 3.6262-3.3478 5.4687-5.0312z" fill="url(#i)"/>
  <path d="m2746.6 788.28c-0.4531-2.5654-0.9005-5.0828-1.4375-7.4062-0.6391-2.7651-1.3474-5.3662-2.0938-7.8125s-1.5339-4.7217-2.375-6.875-1.733-4.1764-2.6562-6.0625-1.8824-3.6365-2.875-5.2812-2.013-3.1958-3.0625-4.625-2.1249-2.7292-3.2187-3.9688c-2.1877-2.479-4.4609-4.6248-6.75-6.5s-4.6165-3.4907-6.9063-4.9688c-2.8794-1.8587-5.487-3.4005-8.1875-5-2.507 1.1231-4.8954 2.1106-7.4375 3.2812 2.5313 1.4335 5.0029 2.7882 7.625 4.4375 2.2414 1.4098 4.4913 2.9832 6.7187 4.7812s4.4226 3.8199 6.5626 6.2188 4.2094 5.1628 6.1874 8.375c0.9891 1.6061 1.9715 3.3382 2.9063 5.1875s1.8162 3.8185 2.6875 5.9375 1.7328 4.3659 2.5312 6.7812 1.5648 5.0118 2.2813 7.75 1.3747 5.631 2 8.7188c0.229 1.1306 0.4091 2.4139 0.625 3.5938 2.3821-2.2022 4.5765-4.3782 6.875-6.5625z" fill="url(#h)"/>
  <path d="m2778.9 706.16c-16.181 0.98892-41.156 10.047-68.625 22.188 2.5962 1.4715 5.1187 2.8682 7.8125 4.5625 2.2414 1.4098 4.5224 2.9832 6.75 4.7812s4.4227 3.8199 6.5625 6.2188 4.2093 5.1628 6.1875 8.375c0.9891 1.6061 1.9402 3.3382 2.875 5.1875s1.8475 3.8185 2.7188 5.9375 1.7014 4.3659 2.5 6.7812 1.5647 4.9805 2.2812 7.7188c0.6065 2.3177 1.1771 4.8397 1.7188 7.4062 33.482-32.257 56.418-61.69 46.187-74.5-3.007-3.7654-8.9023-5.1492-16.969-4.6562z" fill="url(#g)"/>
 </g>
 <g transform="translate(-2.8284 2.8284)" fill-rule="evenodd">
  <path d="m3200.3 588s14.593 106.04 24.469 147.66c5.9063 24.891-13.5 111.38-25.312 121.5s-143.95 126.74-162.42 124.88c-54.422-5.4844-297.05-135.63-332.14-158.67-0.3879-0.25472 123.73-102.05 123.73-102.05l371.67-133.31z" fill="#334b8f"/>
  <path d="m2752.5 851 225.12-157.11-3.7969 265.36s67.495 37.312 78.047 14.344c0.1761-0.38336-5.9061-172.12-5.9061-172.12l62.297 133.22 90.422-76.266-56.953-124.03 77.625 59.484s12.981-45.141-1.2656-91.547c-0.1238-0.40325-91.547-75.094-91.547-75.094l-326.53 116.86-96.549 78.999 49.034 27.912z" fill="#fff"/>
  <path d="m2994 688.41 29.953 60.75 3.375 231.19-28.688-8.8594-4.6407-283.08z" fill="#9f3340"/>
  <path d="m3013.5 671.11 112.89 248.31 54.531-45.781-104.98-225.73-62.438 23.203z" fill="#9f3340"/>
  <path d="m3095.3 627.66 29.109 67.078 98.719 81.844 2.953-38.391-130.78-110.53z" fill="#9f3340"/>
  <path d="m2715.6 830.16 159.05-113.06-75.094 26.578-96.155 79.381 12.202 7.1036z" fill="#9f3340"/>
  <path d="m2683.5 740.3-34.172 16.031s-41.115-80.32-37.969-95.766c4.6406-22.781 91.125-59.484 91.125-59.484l-18.984 139.22z" fill="#334b8f"/>
  <path d="m2616.4 683.34 73.934-18.141s5.9062-36.703 4.2187-35.859-75.937 20.25-75.937 20.25-12.973 5.168-2.2149 33.75z" fill="#fff"/>
  <path d="m2612.2 659.82c1.793 0 78.785-20.461 78.785-20.461l-2.1094 15.293-74.777 20.777s-4.5351-12.973-1.8984-15.609z" fill="#9f3340"/>
  <path d="m2675.1 737.79s58.17-403.57 71.707-420.42c14.238-17.719 130.37-99.671 182.67-100.62 93.234-1.6875 190.27 180.98 205.03 191.11 18.371 12.598 27.547 30.633 40.99 41.511s31.151 14.599 42.964 18.817c23.625 8.4375 126.16 1.6145 141.33 5.0625 55.688 12.656-123.41 86.831-156.94 126.56-11.391 13.5-499.03 190.82-499.03 190.82s107.77-75.255 93.141-83.744c-14.761-8.5658-82.443 25.371-82.443 25.371l-39.418 5.5315z" fill="#334b8f"/>
  <path d="m2810.3 269.91 49.148 125.3s-103.49-86.658-103.49-86.656c-1.5161 2.5658-17.62-0.80038-26.446 83.492-0.092 0.8787 157.78 141.96 157.78 141.96l-201.54 128.33-9.5374 71.357 164.94-49.735-136.64 106.41 39.955-14.532 254.2-164.2 76.833 41.066 105.18-43.268-67.268-27.33 140.59-19.723c35.859-21.762 74.356-41.73 106-66.234l-171.49 30.27 181.72-43.506c2.7422-14.52-33.75-10.477-45.615-10.652l-161.42 43.189 65.812-44.719-55.688-20.672-55.688-63.703-91.125 66.234 6.7501-176.77s-14.193-15.076-33.539-30.797c-19.243-15.637-37.969-22.359-37.969-22.359l-0.2108 112.22-50.203-115.59s-17.362 2.8175-54.316 22.359-49.038 29.301-46.723 28.266z" fill="#fff"/>
  <path d="m2879.1 230.46 10.969-4.2187 112.85 276.54 138.38-89.438 34.594 36.281s35.931 13.414 36.281 16.875c0.5729 5.6662-144.28 83.109-144.28 83.109l278.86-43.348s-67.078 43.559-72.246 43.559c-4.2187 0-264.83 41.555-264.83 41.555l-305.53 199.27s94.411-73.613 89.529-82.837c-6.7663-12.784-109.29 39.157-120.24 43.987-0.0146 0.00645 5.9341-41.604 5.9341-41.604l267.03-171.98-114.75-282.45 27.211-15.188" fill="#9f3340"/>
  <path d="m3007.1 435.28-27.844-60.75 1.6875-142.59s27.158 18.421 28.266 20.883c1.14 2.5349-2.1094 182.46-2.1094 182.46z" fill="#9f3340"/>
  <path d="m2910.5 522.19-29.953-74.672s-139.41-117.85-139.43-117.81c-4.984 12.506-8.2266 36.809-8.2266 36.809l177.61 155.67z" fill="#9f3340"/>
  <path d="m3369 477.57-203.24 48.832-54.844 8.4375 243.11-62.648c5.1328 0.54492 12.797 1.5117 14.976 5.3789z" fill="#9f3340"/>
  <path d="m3152.9 620.75-45.992 19.261-83.777-39.35 52.329-10.005c27.185 7.0876 55.402 24.323 77.441 30.094z" fill="#9f3340"/>
 </g>
 <path d="m2742.9 322.62c-10.253 5.6569-56.432 317.65-72.125 431.69-0.0539 0.39165-5.4801 2.4749 3.5355-1.4142 1.5479-15.7 59.749-419.08 69.827-429.3 0.1241-0.1259 0.884-1.5026-1.2374-0.97226z" fill-rule="evenodd" opacity=".16738"/>
 <path d="m2704.7 792.14c483.31-175.72 468.64-179.25 494.09-188.62 0-0.79549-9.1038 1e-5 -11.844 0.61873-33.198 20.406-307.59 118.71-482.25 188z" fill-rule="evenodd" opacity=".22747"/>
 <path d="m2789.9 709.62c40.875-29.625 307.72-224.56 383.12-256.88 1.75-0.75 49.061 19.841 53.75 20.75 36.558 7.086 132.21-5.4903 139.75 7 8.0612 28.496-139.25 84.75-166.5 122.5-23.75 6.5-5.625 9.875-497.75 190 16.5-14.375 96.75-75.125 87.625-83.375z" fill-rule="evenodd" opacity=".44635"/>
 <path d="m2646.9 759.12c15.125-6.75 14.625-6.375 24.625-11.625 3.75-19.25 17.25-121.25 20.5-140.25-2.125 1.75-84.797 35.448-83.375 58-0.1337 19.182 30.75 82.125 38.25 93.875z" fill-rule="evenodd" opacity=".54936"/>
</svg>
